<svg width="2050" height="780" viewBox="0 0 2050 780" fill="none" xmlns="http://www.w3.org/2000/svg">
<rect width="2050" height="780" fill="#1E1E1E"/>
<g clip-path="url(#clip0_0_1)">
<g filter="url(#filter0_d_0_1)">
<mask id="mask0_0_1" style="mask-type:luminance" maskUnits="userSpaceOnUse" x="1" y="0" width="2047" height="779">
<path d="M1.41664 -1.16229e-05H2047.92V778.667H1.41664V-1.16229e-05Z" fill="white"/>
</mask>
<g mask="url(#mask0_0_1)">
<mask id="mask1_0_1" style="mask-type:luminance" maskUnits="userSpaceOnUse" x="0" y="0" width="2050" height="780">
<path d="M2050 0H0V780H2050V0Z" fill="url(#paint0_linear_0_1)"/>
</mask>
<g mask="url(#mask1_0_1)">
<mask id="mask2_0_1" style="mask-type:luminance" maskUnits="userSpaceOnUse" x="1" y="0" width="2047" height="779">
<path d="M2048 -1.16229e-05H1.3333V778.667H2048V-1.16229e-05Z" fill="white"/>
</mask>
<g mask="url(#mask2_0_1)">
<mask id="mask3_0_1" style="mask-type:luminance" maskUnits="userSpaceOnUse" x="1" y="0" width="2047" height="779">
<path d="M1.41664 -1.16229e-05H2047.92V778.667H1.41664V-1.16229e-05Z" fill="white"/>
</mask>
<g mask="url(#mask3_0_1)">
<mask id="mask4_0_1" style="mask-type:luminance" maskUnits="userSpaceOnUse" x="-387" y="-275" width="2760" height="1054">
<path d="M-386.156 -246.37C-83.4532 -152.187 40.3229 7.93233 122.391 221.87C178.896 367.188 219.255 599.958 496.401 606.688C665.911 610.724 752.016 495.01 926.911 555.557C1068.18 603.995 1100.46 754.693 1317.07 731.823C1521.56 708.948 1498.69 415.625 1728.74 509.813C1870.01 567.667 1956.11 858.302 2164.64 757.385C2354.34 665.891 2396.04 340.276 2361.06 205.724C2291.1 -59.3437 1894.22 -141.422 1560.58 -219.464C1004.94 -349.979 166.786 -203.318 -386.156 -246.37Z" fill="white"/>
</mask>
<g mask="url(#mask4_0_1)">
<path d="M1.41663 778.667V0H2047.92V778.667H1.41663Z" fill="url(#paint1_linear_0_1)"/>
</g>
</g>
</g>
</g>
</g>
</g>
<path d="M1542.09 248.856C1546.7 248.856 1550.54 248.6 1553.61 248.088C1556.77 247.491 1559.24 246.595 1561.04 245.4C1562.91 244.205 1564.24 242.669 1565 240.792C1565.86 238.915 1566.28 236.696 1566.28 234.136H1570.76V269.08H1566.28C1566.28 266.52 1565.9 264.301 1565.13 262.424C1564.45 260.547 1563.17 259.011 1561.29 257.816C1559.5 256.536 1557.03 255.597 1553.87 255C1550.8 254.317 1546.87 253.976 1542.09 253.976V282.904C1542.09 285.72 1542.43 288.067 1543.12 289.944C1543.8 291.736 1544.95 293.229 1546.57 294.424C1548.28 295.533 1550.5 296.344 1553.23 296.856C1555.96 297.283 1559.33 297.496 1563.34 297.496C1567.86 297.496 1571.7 297.197 1574.86 296.6C1578.02 295.917 1580.66 294.808 1582.8 293.272C1584.93 291.736 1586.64 289.731 1587.92 287.256C1589.2 284.696 1590.26 281.539 1591.12 277.784H1595.98L1594.06 303H1514.57V298.136C1517.56 298.051 1519.95 297.795 1521.74 297.368C1523.62 296.941 1525.07 296.216 1526.09 295.192C1527.12 294.168 1527.8 292.717 1528.14 290.84C1528.48 288.963 1528.65 286.531 1528.65 283.544V223.896C1528.65 220.909 1528.48 218.52 1528.14 216.728C1527.88 214.851 1527.29 213.4 1526.35 212.376C1525.5 211.267 1524.22 210.541 1522.51 210.2C1520.8 209.773 1518.58 209.475 1515.85 209.304V204.44H1589.84L1590.99 226.968H1586.51C1586 223.555 1585.14 220.781 1583.95 218.648C1582.84 216.429 1581.26 214.68 1579.21 213.4C1577.25 212.12 1574.73 211.224 1571.66 210.712C1568.59 210.2 1564.88 209.944 1560.52 209.944H1544.27C1542.82 209.944 1542.09 210.669 1542.09 212.12V248.856ZM1662.36 203.16C1669.87 203.16 1676.87 204.483 1683.35 207.128C1689.84 209.773 1695.47 213.4 1700.25 218.008C1705.03 222.616 1708.78 228.077 1711.51 234.392C1714.24 240.621 1715.61 247.363 1715.61 254.616C1715.61 262.637 1713.94 269.976 1710.62 276.632C1707.37 283.203 1703.02 288.877 1697.56 293.656C1693.98 296.728 1689.96 299.331 1685.53 301.464C1681.09 303.512 1676.44 305.432 1671.58 307.224C1669.27 308.163 1667.01 309.144 1664.79 310.168C1662.66 311.192 1660.7 312.387 1658.9 313.752V314.264C1659.42 314.179 1660.1 314.093 1660.95 314.008C1661.89 314.008 1662.7 314.008 1663.38 314.008C1667.22 314.008 1670.81 314.477 1674.14 315.416C1677.46 316.44 1680.71 317.549 1683.86 318.744C1687.02 320.024 1690.18 321.133 1693.34 322.072C1696.49 323.096 1699.82 323.608 1703.32 323.608C1707.33 323.608 1710.36 322.755 1712.41 321.048C1714.46 319.341 1716.12 316.397 1717.4 312.216H1720.6C1720.77 312.984 1720.9 313.837 1720.98 314.776C1721.07 315.715 1721.11 316.653 1721.11 317.592C1721.11 320.323 1720.51 322.797 1719.32 325.016C1718.21 327.32 1716.63 329.283 1714.58 330.904C1712.62 332.611 1710.27 333.933 1707.54 334.872C1704.81 335.811 1701.87 336.28 1698.71 336.28C1693.93 336.28 1689.5 335.341 1685.4 333.464C1681.39 331.672 1677.55 329.667 1673.88 327.448C1670.3 325.315 1666.84 323.309 1663.51 321.432C1660.18 319.64 1656.9 318.744 1653.66 318.744C1651.44 318.744 1649.64 319.171 1648.28 320.024C1646.91 320.877 1645.68 321.816 1644.57 322.84C1643.46 323.949 1642.39 324.931 1641.37 325.784C1640.43 326.637 1639.23 327.064 1637.78 327.064C1635.31 327.064 1634.07 325.997 1634.07 323.864C1634.07 323.267 1634.16 322.755 1634.33 322.328C1634.5 321.901 1634.84 321.389 1635.35 320.792C1635.95 320.28 1636.8 319.64 1637.91 318.872C1639.02 318.189 1640.56 317.293 1642.52 316.184L1659.16 306.712C1651.99 306.456 1645.34 304.963 1639.19 302.232C1633.05 299.416 1627.76 295.704 1623.32 291.096C1618.88 286.403 1615.38 280.984 1612.82 274.84C1610.35 268.611 1609.11 261.955 1609.11 254.872C1609.11 247.533 1610.48 240.707 1613.21 234.392C1615.94 228.077 1619.69 222.616 1624.47 218.008C1629.25 213.4 1634.88 209.773 1641.37 207.128C1647.85 204.483 1654.85 203.16 1662.36 203.16ZM1662.36 300.44C1667.99 300.44 1673.03 299.373 1677.46 297.24C1681.99 295.107 1685.83 292.077 1688.98 288.152C1692.23 284.141 1694.7 279.363 1696.41 273.816C1698.11 268.184 1698.97 261.869 1698.97 254.872C1698.97 248.045 1698.11 241.901 1696.41 236.44C1694.7 230.893 1692.27 226.2 1689.11 222.36C1685.95 218.435 1682.11 215.448 1677.59 213.4C1673.07 211.267 1667.99 210.2 1662.36 210.2C1656.73 210.2 1651.65 211.267 1647.13 213.4C1642.6 215.448 1638.76 218.435 1635.61 222.36C1632.45 226.2 1630.02 230.893 1628.31 236.44C1626.6 241.901 1625.75 248.045 1625.75 254.872C1625.75 261.869 1626.6 268.184 1628.31 273.816C1630.02 279.363 1632.45 284.141 1635.61 288.152C1638.76 292.077 1642.6 295.107 1647.13 297.24C1651.65 299.373 1656.73 300.44 1662.36 300.44ZM1726.3 303V298.136C1729.54 298.051 1732.15 297.837 1734.11 297.496C1736.16 297.069 1737.74 296.344 1738.85 295.32C1739.95 294.211 1740.68 292.76 1741.02 290.968C1741.45 289.091 1741.66 286.616 1741.66 283.544V223.896C1741.66 220.909 1741.49 218.52 1741.15 216.728C1740.89 214.851 1740.3 213.4 1739.36 212.376C1738.5 211.267 1737.22 210.541 1735.52 210.2C1733.81 209.773 1731.59 209.475 1728.86 209.304V204.44H1773.79C1781.47 204.44 1788.55 205.72 1795.04 208.28C1801.61 210.84 1807.24 214.381 1811.93 218.904C1816.71 223.427 1820.42 228.803 1823.07 235.032C1825.71 241.261 1827.04 248.045 1827.04 255.384C1827.04 262.381 1825.8 268.824 1823.33 274.712C1820.85 280.515 1817.35 285.507 1812.83 289.688C1808.39 293.869 1803.06 297.155 1796.83 299.544C1790.6 301.848 1783.77 303 1776.35 303H1726.3ZM1757.28 210.712C1755.83 210.712 1755.1 211.437 1755.1 212.888V282.136C1755.1 291.864 1761.46 296.728 1774.17 296.728C1785.86 296.728 1794.82 293.272 1801.05 286.36C1807.28 279.363 1810.4 269.123 1810.4 255.64C1810.4 248.557 1809.54 242.243 1807.84 236.696C1806.13 231.149 1803.66 226.456 1800.41 222.616C1797.26 218.776 1793.42 215.832 1788.89 213.784C1784.37 211.736 1779.25 210.712 1773.53 210.712H1757.28ZM1866.22 248.856C1870.83 248.856 1874.67 248.6 1877.74 248.088C1880.89 247.491 1883.37 246.595 1885.16 245.4C1887.04 244.205 1888.36 242.669 1889.13 240.792C1889.98 238.915 1890.41 236.696 1890.41 234.136H1894.89V269.08H1890.41C1890.41 266.52 1890.03 264.301 1889.26 262.424C1888.57 260.547 1887.29 259.011 1885.42 257.816C1883.63 256.536 1881.15 255.597 1877.99 255C1874.92 254.317 1871 253.976 1866.22 253.976V282.904C1866.22 285.72 1866.56 288.067 1867.24 289.944C1867.92 291.736 1869.08 293.229 1870.7 294.424C1872.4 295.533 1874.62 296.344 1877.35 296.856C1880.08 297.283 1883.45 297.496 1887.47 297.496C1891.99 297.496 1895.83 297.197 1898.99 296.6C1902.14 295.917 1904.79 294.808 1906.92 293.272C1909.05 291.736 1910.76 289.731 1912.04 287.256C1913.32 284.696 1914.39 281.539 1915.24 277.784H1920.11L1918.19 303H1838.7V298.136C1841.68 298.051 1844.07 297.795 1845.87 297.368C1847.74 296.941 1849.19 296.216 1850.22 295.192C1851.24 294.168 1851.92 292.717 1852.27 290.84C1852.61 288.963 1852.78 286.531 1852.78 283.544V223.896C1852.78 220.909 1852.61 218.52 1852.27 216.728C1852.01 214.851 1851.41 213.4 1850.47 212.376C1849.62 211.267 1848.34 210.541 1846.63 210.2C1844.93 209.773 1842.71 209.475 1839.98 209.304V204.44H1913.96L1915.11 226.968H1910.63C1910.12 223.555 1909.27 220.781 1908.07 218.648C1906.96 216.429 1905.39 214.68 1903.34 213.4C1901.37 212.12 1898.86 211.224 1895.79 210.712C1892.71 210.2 1889 209.944 1884.65 209.944H1868.39C1866.94 209.944 1866.22 210.669 1866.22 212.12V248.856ZM1980.08 283.416L2002.61 227.864C2003.89 224.707 2004.79 222.232 2005.3 220.44C2005.81 218.648 2006.07 217.027 2006.07 215.576C2006.07 213.272 2005.34 211.651 2003.89 210.712C2002.53 209.773 1999.92 209.304 1996.08 209.304V204.44H2027.19V209.304C2025.23 209.56 2023.52 209.901 2022.07 210.328C2020.7 210.755 2019.47 211.352 2018.36 212.12C2017.33 212.888 2016.39 213.912 2015.54 215.192C2014.77 216.387 2014 217.88 2013.24 219.672L1978.55 304.28H1974.07L1941.04 224.536C1939.94 221.976 1938.83 219.757 1937.72 217.88C1936.69 216.003 1935.54 214.467 1934.26 213.272C1932.98 212.077 1931.53 211.181 1929.91 210.584C1928.29 209.987 1926.37 209.603 1924.15 209.432V204.44H1965.88V209.432C1963.49 209.432 1961.52 209.56 1959.99 209.816C1958.54 209.987 1957.39 210.328 1956.53 210.84C1955.68 211.267 1955.08 211.821 1954.74 212.504C1954.4 213.187 1954.23 213.955 1954.23 214.808C1954.23 216.003 1954.44 217.411 1954.87 219.032C1955.3 220.568 1956.11 222.829 1957.3 225.816L1980.08 283.416Z" fill="white"/>
<path d="M1508.81 315.8H1627.98V322.2H1508.81V315.8ZM1727.51 315.8H2026.16V322.2H1727.51V315.8Z" fill="white"/>
</g>
<defs>
<filter id="filter0_d_0_1" x="-2.58336" y="0" width="2054.5" height="786.491" filterUnits="userSpaceOnUse" color-interpolation-filters="sRGB">
<feFlood flood-opacity="0" result="BackgroundImageFix"/>
<feColorMatrix in="SourceAlpha" type="matrix" values="0 0 0 0 0 0 0 0 0 0 0 0 0 0 0 0 0 0 127 0" result="hardAlpha"/>
<feOffset dy="4"/>
<feGaussianBlur stdDeviation="2"/>
<feComposite in2="hardAlpha" operator="out"/>
<feColorMatrix type="matrix" values="0 0 0 0 0 0 0 0 0 0 0 0 0 0 0 0 0 0 0.25 0"/>
<feBlend mode="normal" in2="BackgroundImageFix" result="effect1_dropShadow_0_1"/>
<feBlend mode="normal" in="SourceGraphic" in2="effect1_dropShadow_0_1" result="shape"/>
</filter>
<linearGradient id="paint0_linear_0_1" x1="353.186" y1="248.926" x2="1732.04" y2="259.443" gradientUnits="userSpaceOnUse">
<stop stop-color="#CB23D7"/>
<stop offset="1" stop-color="#2821FF"/>
</linearGradient>
<linearGradient id="paint1_linear_0_1" x1="354" y1="248.5" x2="1730.5" y2="259" gradientUnits="userSpaceOnUse">
<stop stop-color="#CB23D7"/>
<stop offset="1" stop-color="#2821FF"/>
</linearGradient>
<clipPath id="clip0_0_1">
<rect width="2050" height="780" fill="white"/>
</clipPath>
</defs>
</svg>
